[img]http://img194.imageshack.us/img194/3811/hopjy.jpg[/img]
[code]
Hop 2011 720p BRRiP XViD AC3 - IMAGiNE

Ripper ...........: IMAGiNE                                        IMDB Rating.......:5.1/10                             
Video Codec.......: XVID                                         Release Date......:28/07/11
Audio Codec.......:AC3                                           Theatre Date......:01/04/11
Audio Bitrate.....:448                                              Runtime.......:1h 35mn
Subtitles.........:NIL                                                Language..........:ENGLISH
Resolution...... 1280 x 688                                      IMDb URL.......... http://www.imdb.com/title/tt1411704/

DETAILS:

Video
ID                               : 0
Format                           : MPEG-4 Visual
Format profile                   : Advanced Simple@L5
Format settings, BVOP            : 2
Format settings, QPel            : No
Format settings, GMC             : No warppoints
Format settings, Matrix          : Default (MPEG)
Muxing mode                      : Packed bitstream
Codec ID                        : XVID
Codec ID/Hint                    : XviD
Duration                         : 1h 35mn
Bit rate                         : 3 515 Kbps
Width                            : 1 280 pixels
Height                           : 688 pixels
Display aspect ratio             : 1.860
Frame rate                       : 23.976 fps
Color space                      : YUV
Chroma subsampling               : 4:2:0
Bit depth                        : 8 bits
Scan type                        : Progressive
Compression mode                 : Lossy
Bits/(Pixel*Frame)               : 0.166
Stream size                      : 2.33 GiB (88%)
Writing library                  : XviD 64

Audio
ID                               : 1
Format                           : AC-3
Format/Info                      : Audio Coding 3
Mode extension                   : CM (complete main)
Codec ID                         : 2000
Duration                         : 1h 35mn
Bit rate mode                    : Constant
Bit rate                         : 448 Kbps
Channel(s)                       : 6 channels
Channel positions                : Front: L C R, Side: L R, LFE
Sampling rate                    : 48.0 KHz
Bit depth                        : 16 bits
Compression mode                 : Lossy
Stream size                      : 304 MiB (11%)
Alignment                        : Aligned on interleaves
Interleave, duration             : 42 ms (1.00 video frame

SOURCES:
VIDEO:.............Hop.720p.BluRay.x264-TWiZTED
AUDIO:.............Hop.720p.BluRay.x264-TWiZTED Thanks Mateys 

NOTES:
IMAGiNE bringing you another release..........
Hop in 720p.........
Ok folks heres another nice brrip.......
source was good so not much work needed, made a script to sharpen a bit converted the DTS track to AC3 and remuxed 

Enjoy!
[/code]
Screens:
[img]http://img856.imageshack.us/img856/411/68346431.jpg[/img]
[img]http://img684.imageshack.us/img684/5697/86981757.png[[/img]
[img]http://img832.imageshack.us/img832/9726/74044643.jpg[/img]
[img]http://img40.imageshack.us/img40/7703/39679217.jpg[/img]